<?xml version="1.0" standalone="no"?>
<!DOCTYPE svg PUBLIC "-//W3C//DTD SVG 20010904//EN"
 "http://www.w3.org/TR/2001/REC-SVG-20010904/DTD/svg10.dtd">
<svg version="1.0" xmlns="http://www.w3.org/2000/svg"
 width="3269.000000pt" height="1208.000000pt" viewBox="0 0 3269.000000 1208.000000"
 preserveAspectRatio="xMidYMid meet">

<g transform="translate(0.000000,1208.000000) scale(0.100000,-0.100000)"
fill="#000000" stroke="none">
<path d="M29324 10081 c-114 -12 -200 -87 -229 -200 -8 -32 -19 -49 -36 -58
-27 -12 -187 -48 -262 -58 -27 -4 -67 -13 -89 -21 l-40 -14 -44 44 c-24 25
-69 62 -101 83 -53 35 -62 38 -133 38 -56 0 -90 -6 -126 -21 -27 -12 -62 -26
-79 -32 -71 -24 -103 -36 -145 -55 -25 -11 -63 -28 -85 -37 -155 -68 -189 -94
-233 -176 -17 -33 -23 -63 -26 -140 -2 -55 -4 -100 -5 -101 -1 -2 -18 -12 -38
-23 -49 -26 -98 -58 -287 -187 -26 -18 -54 -33 -61 -33 -7 0 -43 14 -80 30
-87 39 -167 41 -240 6 -63 -30 -200 -152 -335 -300 -127 -139 -156 -197 -147
-298 3 -36 16 -88 31 -121 14 -32 26 -62 26 -66 0 -13 -229 -354 -243 -363 -7
-4 -37 -8 -67 -8 -109 -1 -195 -32 -251 -91 -28 -29 -119 -206 -119 -231 0 -8
-5 -19 -10 -24 -11 -11 -33 -67 -81 -204 -31 -91 -40 -211 -19 -266 6 -15 42
-58 80 -95 42 -41 70 -76 70 -89 0 -11 -9 -53 -20 -92 -11 -40 -20 -84 -20
-99 0 -31 -37 -181 -48 -190 -4 -3 -29 -14 -57 -24 -27 -10 -57 -24 -66 -32
-8 -7 -20 -13 -25 -13 -18 0 -71 -64 -95 -115 -24 -49 -24 -54 -24 -342 l0
-292 30 -55 c39 -72 99 -125 177 -156 71 -29 80 -42 98 -140 6 -36 21 -105 31
-155 11 -49 22 -99 24 -110 3 -13 -13 -36 -55 -75 -81 -77 -115 -149 -107
-234 6 -72 43 -191 97 -311 10 -22 28 -65 41 -95 71 -172 116 -231 213 -275
45 -20 69 -25 137 -24 89 1 96 -3 131 -71 7 -14 45 -72 84 -130 117 -174 111
-158 80 -225 -78 -164 -56 -242 120 -442 66 -74 258 -250 289 -264 11 -6 31
-16 45 -24 16 -9 54 -15 103 -15 66 0 88 5 143 30 36 17 73 28 82 25 9 -3 96
-58 192 -123 l175 -117 5 -105 c5 -92 9 -111 34 -153 15 -26 42 -58 59 -71 40
-29 173 -92 297 -140 250 -97 281 -105 352 -86 67 16 112 45 178 111 l52 52
87 -22 c48 -11 96 -21 106 -21 28 0 198 -42 211 -52 7 -5 17 -28 23 -51 16
-62 50 -115 103 -160 58 -49 101 -56 353 -63 129 -4 209 -1 283 9 93 14 107
19 147 51 52 43 82 82 96 128 27 81 38 97 77 103 20 4 60 13 87 20 28 7 77 16
110 20 92 10 241 52 304 85 171 91 304 261 352 448 23 92 25 246 4 347 -8 39
-36 113 -61 165 -85 171 -254 312 -439 366 -53 15 -133 18 -675 24 -571 6
-624 8 -735 28 -213 39 -388 95 -575 185 -721 346 -1201 1018 -1281 1794 -18
180 -7 465 25 636 70 367 239 725 480 1015 86 103 129 142 245 219 47 31 131
99 186 152 78 74 126 110 210 157 240 134 439 206 711 256 111 20 162 22 734
28 542 6 622 9 675 24 185 54 354 195 439 366 56 114 76 201 76 336 0 217 -89
409 -252 543 -110 89 -230 139 -380 156 -58 6 -58 6 -64 45 l-6 38 -77 17
c-42 10 -89 20 -105 24 -26 6 -33 16 -55 75 -27 75 -85 142 -152 177 -35 17
-64 20 -292 24 -138 2 -284 0 -323 -4z"/>
<path d="M11055 9755 c-149 -27 -261 -91 -378 -215 -138 -147 -194 -305 -184
-524 8 -200 61 -320 204 -463 63 -63 99 -90 165 -122 155 -76 141 -75 721 -79
284 -2 517 0 517 3 0 4 -14 36 -30 72 -152 328 -197 714 -124 1071 13 64 54
214 71 260 7 18 -862 16 -962 -3z"/>
<path d="M15271 9688 c134 -400 105 -873 -75 -1264 l-35 -75 597 4 c664 4 641
2 792 75 106 51 251 196 302 302 87 178 100 376 37 564 -53 159 -194 323 -341
396 -154 76 -128 73 -749 77 l-556 4 28 -83z"/>
<path d="M20780 9703 c-223 -10 -519 -56 -735 -113 -610 -163 -1210 -512
-1670 -974 -506 -509 -869 -1197 -1004 -1906 -58 -308 -56 -235 -56 -2070 0
-1886 -6 -1730 72 -1888 39 -80 146 -202 220 -253 186 -128 416 -160 643 -90
96 30 185 86 271 171 61 61 84 93 119 165 53 113 51 107 101 245 85 238 219
470 387 670 357 426 904 713 1467 769 138 14 220 14 1497 13 l1127 -2 3 -762
c3 -758 3 -763 25 -821 45 -119 85 -180 178 -273 73 -74 107 -99 175 -132 120
-59 193 -76 330 -76 133 0 210 17 315 69 178 87 313 250 368 442 l22 78 3
1500 c3 1517 -2 1810 -33 2050 -73 551 -270 1075 -585 1549 -306 462 -687 827
-1165 1117 -157 95 -466 245 -635 307 -447 165 -937 238 -1440 215z m554
-1447 c318 -52 597 -159 866 -333 243 -158 477 -394 658 -665 73 -108 194
-361 241 -503 76 -226 106 -407 117 -707 l7 -177 -1334 -4 c-1391 -4 -1378 -4
-1644 -47 -489 -79 -997 -280 -1417 -562 -48 -32 -90 -58 -93 -58 -4 0 -5 242
-2 538 3 448 7 554 21 642 118 715 548 1307 1200 1654 239 128 490 203 796
240 82 10 489 -3 584 -18z"/>
<path d="M14335 7580 c-366 -175 -861 -196 -1268 -55 l-67 24 2 -2252 c3
-2114 4 -2256 21 -2312 69 -239 267 -432 500 -491 93 -24 266 -24 357 -1 36
10 103 36 150 59 68 33 102 58 175 132 104 104 153 187 185 312 20 76 20 121
20 2346 0 1247 -3 2268 -7 2267 -5 0 -35 -14 -68 -29z"/>
<path d="M8900 6084 c-244 -66 -381 -336 -291 -574 41 -108 139 -207 251 -253
l55 -22 930 0 930 0 55 22 c111 46 208 143 252 253 17 44 22 76 22 155 0 79
-5 111 -22 155 -44 110 -141 207 -252 253 l-55 22 -910 2 c-778 2 -918 0 -965
-13z"/>
</g>
</svg>
